<svg width="699" height="92" viewBox="0 0 699 92" fill="none" xmlns="http://www.w3.org/2000/svg">
<path fill-rule="evenodd" clip-rule="evenodd" d="M380.785 8.46973L752.154 8.46974C775.817 8.46974 795 27.5996 795 51.1976C795 74.7955 775.817 93.9254 752.154 93.9254L380.785 93.9254L380.785 8.46973ZM408.789 36.3964L408.789 65.9987L752.154 65.9987C760.351 65.9987 766.996 59.372 766.996 51.1976C766.996 43.0231 760.351 36.3964 752.154 36.3964L408.789 36.3964Z" fill="#6C89FE" fill-opacity="0.08"/>
<path d="M124.962 95.5583C113.124 95.5583 101.772 90.8559 93.4016 82.4856C85.0313 74.1153 80.3289 62.7628 80.3289 50.9254C80.3289 39.088 85.0313 27.7355 93.4016 19.3652C101.772 10.9949 113.124 6.29248 124.962 6.29248L124.962 95.5583Z" fill="#6C89FE" fill-opacity="0.08"/>
<path d="M152.722 56.6106V45.785L250.152 45.785V56.6106L152.722 56.6106Z" fill="#F3F6FF"/>
<path fill-rule="evenodd" clip-rule="evenodd" d="M150.239 59.0928V43.3026L252.634 43.3026V59.0928L150.239 59.0928ZM152.721 56.6105L250.152 56.6105V45.7849L152.721 45.7849V56.6105Z" fill="#F3F6FF"/>
<path d="M163.162 20.5781L170.817 12.9233L239.711 81.8169L232.056 89.4718L163.162 20.5781Z" fill="#F3F6FF"/>
<path fill-rule="evenodd" clip-rule="evenodd" d="M159.652 20.5781L170.818 9.41277L243.222 81.8169L232.056 92.9823L159.652 20.5781ZM163.163 20.5781L232.056 89.4718L239.711 81.8169L170.818 12.9233L163.163 20.5781Z" fill="#F3F6FF"/>
<path d="M196.024 2.48267L206.85 2.48267L206.85 99.913L196.024 99.913L196.024 2.48267Z" fill="#F3F6FF"/>
<path fill-rule="evenodd" clip-rule="evenodd" d="M193.542 0.000244141L209.332 0.000244831L209.332 102.395L193.541 102.395L193.542 0.000244141ZM196.024 2.48255L196.024 99.9129L206.849 99.9129L206.849 2.48255L196.024 2.48255Z" fill="#F3F6FF"/>
<path d="M232.056 12.9233L239.711 20.5782L170.817 89.4719L163.162 81.817L232.056 12.9233Z" fill="#F3F6FF"/>
<path fill-rule="evenodd" clip-rule="evenodd" d="M232.056 9.41309L243.221 20.5784L170.817 92.9826L159.652 81.8173L232.056 9.41309ZM232.056 12.9236L163.162 81.8173L170.817 89.4721L239.711 20.5784L232.056 12.9236Z" fill="#F3F6FF"/>
<path d="M277.911 95.0142V7.38125H365.544V95.0142H277.911Z" fill="#6C89FE" fill-opacity="0.08"/>
<path fill-rule="evenodd" clip-rule="evenodd" d="M23.4042 69.9311L42.6366 50.6987L23.4042 31.4664L4.17186 50.6987L23.4042 69.9311ZM68.8085 50.6987L23.4042 5.29447L-22 50.6987L23.4042 96.103L68.8085 50.6987Z" fill="#6C89FE" fill-opacity="0.08"/>
</svg>
