<svg width="196" height="196" viewBox="0 0 196 196" fill="none" xmlns="http://www.w3.org/2000/svg">
<path d="M112.778 10V5H107.778H88.2227H83.2227V10V62.3254L46.2234 25.3262L42.6879 21.7906L39.1524 25.3262L25.3245 39.154L21.789 42.6896L25.3245 46.2251L62.3201 83.2207H10H5V88.2207V107.776V112.776H10H62.3236L25.3252 149.775L21.7897 153.31L25.3252 156.846L39.1531 170.674L42.6886 174.209L46.2241 170.674L83.2227 133.675V186V191H88.2227H107.778H112.778V186V133.679L149.775 170.676L153.311 174.211L156.846 170.676L170.674 156.848L174.21 153.312L170.674 149.777L133.674 112.776H186H191V107.776V88.2207V83.2207H186H133.677L170.675 46.2228L174.21 42.6872L170.675 39.1517L156.847 25.3238L153.312 21.7883L149.776 25.3238L112.778 62.3216V10Z" stroke="#FBB22D" stroke-width="10"/>
</svg>
