<svg width="506" height="116" viewBox="0 0 506 116" fill="none" xmlns="http://www.w3.org/2000/svg">
<path d="M58 96C79.0828 96 97 79.2136 97 57.5C97 35.7864 79.0828 19 58 19C36.9172 19 19 35.7864 19 57.5C19 79.2136 36.9172 96 58 96Z" stroke="#E571EE" stroke-width="38"/>
<path d="M181 19H162V38V77V96H181H346.5C367.763 96 385 78.763 385 57.5C385 36.237 367.763 19 346.5 19H181Z" stroke="#628BFF" stroke-width="38"/>
<path d="M465.285 34.4083C476.084 34.4083 486.44 38.6678 494.075 46.2496C501.711 53.8315 506.001 64.1146 506.001 74.837C506.001 85.5593 501.711 95.8425 494.075 103.424C486.44 111.006 476.084 115.266 465.285 115.266L465.285 34.4083Z" fill="#FBB22D"/>
<path d="M465.285 80.8573C454.487 80.8573 444.131 76.5979 436.495 69.016C428.859 61.4342 424.57 51.151 424.57 40.4286C424.57 29.7063 428.859 19.4231 436.495 11.8413C444.131 4.25943 454.487 5.46234e-07 465.285 0L465.285 80.8573Z" fill="#FBB22D"/>
</svg>
