<svg width="426" height="285" viewBox="0 0 426 285" fill="none" xmlns="http://www.w3.org/2000/svg">
<circle cx="64.2231" cy="64.6101" r="43.1647" stroke="#B3E919" stroke-width="41.1092"/>
<path d="M41.553 165.002H20.9984V185.557V229.322V249.877H41.553H234.795C258.232 249.877 277.232 230.877 277.232 207.439C277.232 184.002 258.232 165.002 234.795 165.002H41.553Z" stroke="#81E6FC" stroke-width="41.1092"/>
<path d="M370.341 176.274C384.862 176.274 398.787 182.002 409.054 192.197C419.322 202.392 425.09 216.219 425.09 230.637C425.09 245.055 419.322 258.882 409.054 269.077C398.787 279.273 384.861 285 370.341 285L370.341 176.274Z" fill="#FDCF5A"/>
<path d="M370.341 238.734C355.821 238.734 341.896 233.006 331.628 222.811C321.361 212.616 315.593 198.789 315.593 184.371C315.593 169.953 321.361 156.125 331.628 145.93C341.896 135.735 355.821 130.008 370.341 130.008L370.341 238.734Z" fill="#FDCF5A"/>
</svg>
