<svg width="56" height="56" viewBox="0 0 56 56" fill="none" xmlns="http://www.w3.org/2000/svg">
<path d="M25.04 1.35742H30.9606V54.6423H25.04V1.35742Z" fill="white"/>
<path fill-rule="evenodd" clip-rule="evenodd" d="M23.6814 0H32.3171V56H23.6814V0ZM25.039 1.35758V54.6424H30.9595V1.35758H25.039Z" fill="white"/>
<path d="M44.7463 7.06738L48.9328 11.2538L11.2547 48.9319L7.06827 44.7455L44.7463 7.06738Z" fill="white"/>
<path fill-rule="evenodd" clip-rule="evenodd" d="M44.7463 5.14844L50.8527 11.2548L11.2547 50.8528L5.14836 44.7464L44.7463 5.14844ZM44.7463 7.06834L7.06826 44.7464L11.2547 48.9329L48.9328 11.2548L44.7463 7.06834Z" fill="white"/>
<path d="M54.6418 25.04L54.6418 30.9606L1.35701 30.9606L1.35701 25.04L54.6418 25.04Z" fill="white"/>
<path fill-rule="evenodd" clip-rule="evenodd" d="M56 23.6826L56 32.3183L-3.77478e-07 32.3183L0 23.6826L56 23.6826ZM54.6424 25.0402L1.35757 25.0402L1.35757 30.9607L54.6424 30.9607L54.6424 25.0402Z" fill="white"/>
<path d="M48.9321 44.7461L44.7457 48.9325L7.06761 11.2545L11.2541 7.06802L48.9321 44.7461Z" fill="white"/>
<path fill-rule="evenodd" clip-rule="evenodd" d="M50.8513 44.7461L44.745 50.8524L5.14699 11.2545L11.2533 5.14811L50.8513 44.7461ZM48.9314 44.7461L11.2533 7.06801L7.06689 11.2545L44.745 48.9325L48.9314 44.7461Z" fill="white"/>
</svg>
