<svg width="312" height="142" viewBox="0 0 312 142" fill="none" xmlns="http://www.w3.org/2000/svg">
<path fill-rule="evenodd" clip-rule="evenodd" d="M147.569 102.56L176.109 85.9378L159.86 56.7414L131.32 73.364L147.569 102.56ZM206.584 94.4932L168.223 25.5655L100.846 64.8086L139.206 133.736L206.584 94.4932Z" fill="#E571EE"/>
<path d="M29.413 34.0051H36.3675V98.0359H29.413V34.0051Z" fill="#628BFF"/>
<path fill-rule="evenodd" clip-rule="evenodd" d="M27.818 32.3735H37.9619V99.667H27.818V32.3735ZM29.4127 34.0049V98.0357H36.3672V34.0049H29.4127Z" fill="#628BFF"/>
<path d="M52.5605 40.8674L57.4781 45.8982L13.2198 91.1748L8.30217 86.144L52.5605 40.8674Z" fill="#628BFF"/>
<path fill-rule="evenodd" clip-rule="evenodd" d="M52.5605 38.5601L59.7333 45.8979L13.2198 93.4816L6.04696 86.1438L52.5605 38.5601ZM52.5605 40.8671L8.30217 86.1437L13.2198 91.1745L57.4781 45.8979L52.5605 40.8671Z" fill="#628BFF"/>
<path d="M64.1852 62.4636L64.1852 69.5782L1.59438 69.5782L1.59439 62.4636L64.1852 62.4636Z" fill="#628BFF"/>
<path fill-rule="evenodd" clip-rule="evenodd" d="M65.7802 60.8315L65.7802 71.2088L1.65131e-05 71.2088L1.69565e-05 60.8315L65.7802 60.8315ZM64.1855 62.4629L1.59469 62.4629L1.59469 69.5774L64.1855 69.5774L64.1855 62.4629Z" fill="#628BFF"/>
<path d="M57.4778 86.1436L52.5602 91.1743L8.30182 45.8977L13.2194 40.867L57.4778 86.1436Z" fill="#628BFF"/>
<path fill-rule="evenodd" clip-rule="evenodd" d="M59.7328 86.1436L52.56 93.4814L6.04641 45.8977L13.2192 38.5599L59.7328 86.1436ZM57.4776 86.1436L13.2192 40.8669L8.30161 45.8977L52.56 91.1743L57.4776 86.1436Z" fill="#628BFF"/>
<rect x="57.5896" y="2" width="62.6388" height="64.0799" rx="31.3194" fill="#FCBA30"/>
<rect x="77.2146" y="25.3069" width="11.6161" height="11.6161" transform="rotate(45 77.2146 25.3069)" stroke="white" stroke-width="3.45889"/>
<rect x="89.2173" y="37.1309" width="11.6161" height="11.6161" transform="rotate(45 89.2173 37.1309)" stroke="white" stroke-width="3.45889"/>
<rect x="89.2173" y="13.4834" width="11.6161" height="11.6161" transform="rotate(45 89.2173 13.4834)" stroke="white" stroke-width="3.45889"/>
<rect x="101.22" y="25.3069" width="11.6161" height="11.6161" transform="rotate(45 101.22 25.3069)" stroke="white" stroke-width="3.45889"/>
<path fill-rule="evenodd" clip-rule="evenodd" d="M117.505 104.362L277.392 32.5125C287.58 27.9343 299.456 32.6485 303.919 43.042C308.382 53.4355 303.741 65.5724 293.553 70.1506L133.666 142L117.505 104.362ZM134.843 111.244L140.442 124.282L288.272 57.8505C291.801 56.2646 293.409 52.0603 291.863 48.46C290.317 44.8596 286.203 43.2266 282.673 44.8125L134.843 111.244Z" fill="#628BFF"/>
<mask id="path-16-outside-1_133_155" maskUnits="userSpaceOnUse" x="207.394" y="0.0473633" width="51" height="52" fill="black">
<rect fill="white" x="207.394" y="0.0473633" width="51" height="52"/>
<path fill-rule="evenodd" clip-rule="evenodd" d="M235.421 3.04736H230.415V19.9089L218.761 7.98601L215.221 11.6067L226.875 23.5288H210.394L210.394 28.6493H226.876L215.222 40.5721L218.761 44.1928L230.415 32.2701V49.1316H235.421V32.2708L247.075 44.1932L250.614 40.5725L238.959 28.6493H255.442V23.5288H238.96L250.615 11.6063L247.075 7.9856L235.421 19.9082V3.04736Z"/>
</mask>
<path d="M230.415 3.04736V0.471418H227.84V3.04736H230.415ZM235.421 3.04736H237.997V0.471418H235.421V3.04736ZM230.415 19.9089L228.573 21.7096L232.991 26.2292V19.9089H230.415ZM218.761 7.98601L220.603 6.18537L218.761 4.30093L216.919 6.18537L218.761 7.98601ZM215.221 11.6067L213.379 9.80609L211.619 11.6067L213.379 13.4074L215.221 11.6067ZM226.875 23.5288V26.1048H232.996L228.717 21.7282L226.875 23.5288ZM210.394 23.5288V20.9529H207.818L207.818 23.5288L210.394 23.5288ZM210.394 28.6493L207.818 28.6493L207.818 31.2252H210.394V28.6493ZM226.876 28.6493L228.718 30.4499L232.997 26.0733H226.876V28.6493ZM215.222 40.5721L213.38 38.7715L211.619 40.5721L213.38 42.3727L215.222 40.5721ZM218.761 44.1928L216.919 45.9935L218.761 47.8779L220.603 45.9935L218.761 44.1928ZM230.415 32.2701H232.991V25.9498L228.573 30.4695L230.415 32.2701ZM230.415 49.1316H227.84V51.7076H230.415V49.1316ZM235.421 49.1316V51.7076H237.997V49.1316H235.421ZM235.421 32.2708L237.263 30.4702L232.845 25.9505V32.2708H235.421ZM247.075 44.1932L245.233 45.9939L247.075 47.8783L248.917 45.9939L247.075 44.1932ZM250.614 40.5725L252.456 42.3731L254.217 40.5725L252.456 38.7719L250.614 40.5725ZM238.959 28.6493V26.0733H232.839L237.117 30.4499L238.959 28.6493ZM255.442 28.6493V31.2252H258.018V28.6493H255.442ZM255.442 23.5288H258.018V20.9529H255.442V23.5288ZM238.96 23.5288L237.118 21.7282L232.84 26.1048H238.96V23.5288ZM250.615 11.6063L252.457 13.407L254.217 11.6063L252.457 9.80568L250.615 11.6063ZM247.075 7.9856L248.917 6.18496L247.075 4.30051L245.233 6.18496L247.075 7.9856ZM235.421 19.9082H232.845V26.2285L237.263 21.7088L235.421 19.9082ZM230.415 5.62331H235.421V0.471418H230.415V5.62331ZM232.991 19.9089V3.04736H227.84V19.9089H232.991ZM216.919 9.78665L228.573 21.7096L232.258 18.1083L220.603 6.18537L216.919 9.78665ZM217.063 13.4074L220.603 9.78665L216.919 6.18537L213.379 9.80609L217.063 13.4074ZM228.717 21.7282L217.063 9.80609L213.379 13.4074L225.033 25.3294L228.717 21.7282ZM210.394 26.1048H226.875V20.9529H210.394V26.1048ZM212.97 28.6493L212.97 23.5288L207.818 23.5288L207.818 28.6493L212.97 28.6493ZM226.876 26.0733H210.394V31.2252H226.876V26.0733ZM217.064 42.3727L228.718 30.4499L225.034 26.8486L213.38 38.7715L217.064 42.3727ZM220.603 42.3922L217.064 38.7715L213.38 42.3727L216.919 45.9935L220.603 42.3922ZM228.573 30.4695L216.919 42.3922L220.603 45.9935L232.258 34.0708L228.573 30.4695ZM232.991 49.1316V32.2701H227.84V49.1316H232.991ZM235.421 46.5557H230.415V51.7076H235.421V46.5557ZM232.845 32.2708V49.1316H237.997V32.2708H232.845ZM248.917 42.3926L237.263 30.4702L233.579 34.0715L245.233 45.9939L248.917 42.3926ZM248.772 38.7719L245.233 42.3926L248.917 45.9939L252.456 42.3731L248.772 38.7719ZM237.117 30.4499L248.772 42.3731L252.456 38.7719L240.801 26.8486L237.117 30.4499ZM255.442 26.0733H238.959V31.2252H255.442V26.0733ZM252.866 23.5288V28.6493H258.018V23.5288H252.866ZM238.96 26.1048H255.442V20.9529H238.96V26.1048ZM248.772 9.80568L237.118 21.7282L240.802 25.3294L252.457 13.407L248.772 9.80568ZM245.233 9.78623L248.772 13.407L252.457 9.80568L248.917 6.18496L245.233 9.78623ZM237.263 21.7088L248.917 9.78623L245.233 6.18496L233.579 18.1076L237.263 21.7088ZM232.845 3.04736V19.9082H237.997V3.04736H232.845Z" fill="#FBB22D" mask="url(#path-16-outside-1_133_155)"/>
</svg>
