<svg width="670" height="345" viewBox="0 0 670 345" fill="none" xmlns="http://www.w3.org/2000/svg">
<rect x="14.277" width="658" height="144" rx="72" transform="rotate(5.69 14.277 0)" fill="#E571EE"/>
<path d="M91.2155 105.709C102.32 106.815 112.48 101.677 116.857 88.004L132.298 92.7985C126.311 112.944 108.929 122.789 89.7045 120.874C66.181 118.53 49.4929 98.4164 51.8368 74.8929C54.1687 51.4888 74.5092 34.944 98.0328 37.2878C117.258 39.2033 132.224 52.3921 134.368 72.0214L118.166 74.8691C116.561 60.7202 107.615 53.6786 96.5099 52.5721C82.1808 51.1444 69.7067 61.358 68.1958 76.5229C66.6848 91.6878 76.8864 104.281 91.2155 105.709ZM189.108 46.3622C212.751 48.7179 229.403 69.1898 227.083 92.4745C224.763 115.759 204.423 132.304 180.78 129.948C157.137 127.593 140.461 107.36 142.781 84.0749C145.101 60.7902 165.465 44.0065 189.108 46.3622ZM182.303 114.664C196.751 116.104 209.201 106.129 210.724 90.8446C212.247 75.5603 202.034 63.0862 187.585 61.6466C173.137 60.207 160.663 70.4205 159.14 85.7048C157.617 100.989 167.854 113.224 182.303 114.664ZM333.311 62.5391L325.339 142.543L309.577 140.972L314.158 95.0001L284.501 138.474L277.218 137.748L256.603 89.2655L252.022 135.238L236.26 133.667L244.232 53.6635L258.441 55.0793L283.263 113.388L319.22 61.1352L333.311 62.5391ZM358.265 145.824L342.026 144.206L349.997 64.2017L366.237 65.8197L358.265 145.824ZM457.151 74.8781L449.179 154.882L435.567 153.526L396.382 97.7659L391.266 149.112L375.026 147.494L382.998 67.4897L396.61 68.8461L435.652 126.039L440.911 73.26L457.151 74.8781ZM505.863 113.377L549.686 117.744C549.651 120.514 549.544 122.795 549.354 124.705C546.986 148.468 528.257 164.57 504.614 162.214C480.733 159.835 463.925 139.709 466.269 116.186C468.601 92.7816 488.942 76.2367 512.465 78.5806C529.302 80.2581 544.398 89.7215 548.511 106.532L533.432 110.215C528.699 98.4078 519.659 94.7334 510.942 93.8649C496.613 92.4372 484.247 102.782 482.747 117.828C481.236 132.992 491.677 145.61 506.603 147.097C518.783 148.311 528.572 142.05 532.448 130.98L504.387 128.184L505.863 113.377Z" fill="white"/>
<path d="M593.928 103.337L599.819 103.924L594.536 156.946L588.645 156.359L593.928 103.337Z" fill="#FEFCE4"/>
<path fill-rule="evenodd" clip-rule="evenodd" d="M592.71 101.851L601.303 102.707L595.751 158.431L587.158 157.575L592.71 101.851ZM593.927 103.337L588.644 156.359L594.535 156.946L599.818 103.924L593.927 103.337Z" fill="#FEFCE4"/>
<path d="M612.971 110.972L616.722 115.553L575.494 149.31L571.743 144.729L612.971 110.972Z" fill="#FEFCE4"/>
<path fill-rule="evenodd" clip-rule="evenodd" d="M613.161 109.063L618.632 115.744L575.303 151.221L569.832 144.54L613.161 109.063ZM612.971 110.973L571.743 144.73L575.493 149.311L616.721 115.554L612.971 110.973Z" fill="#FEFCE4"/>
<path d="M621.036 129.837L620.449 135.729L567.426 130.446L568.013 124.554L621.036 129.837Z" fill="#FEFCE4"/>
<path fill-rule="evenodd" clip-rule="evenodd" d="M622.522 128.621L621.666 137.214L565.941 131.662L566.798 123.069L622.522 128.621ZM621.036 129.837L568.014 124.554L567.427 130.446L620.449 135.729L621.036 129.837Z" fill="#FEFCE4"/>
<path d="M613.4 148.88L608.819 152.631L575.063 111.403L579.644 107.652L613.4 148.88Z" fill="#FEFCE4"/>
<path fill-rule="evenodd" clip-rule="evenodd" d="M615.31 149.07L608.628 154.541L573.151 111.212L579.833 105.741L615.31 149.07ZM613.4 148.88L579.643 107.652L575.062 111.403L608.819 152.631L613.4 148.88Z" fill="#FEFCE4"/>
<rect x="79.277" y="200.556" width="505" height="144" rx="72" transform="rotate(-3.53 79.277 200.556)" fill="#FBB22D"/>
<path d="M146.986 241.823L152.896 241.458L156.177 294.642L150.267 295.007L146.986 241.823Z" fill="#FEFCE4"/>
<path fill-rule="evenodd" clip-rule="evenodd" d="M145.547 240.551L154.166 240.02L157.614 295.913L148.995 296.445L145.547 240.551ZM146.985 241.823L150.266 295.006L156.175 294.642L152.895 241.458L146.985 241.823Z" fill="#FEFCE4"/>
<path d="M167.007 246.308L171.443 250.229L136.156 290.156L131.72 286.235L167.007 246.308Z" fill="#FEFCE4"/>
<path fill-rule="evenodd" clip-rule="evenodd" d="M166.889 244.393L173.359 250.112L136.275 292.073L129.804 286.354L166.889 244.393ZM167.007 246.309L131.72 286.236L136.157 290.156L171.443 250.23L167.007 246.309Z" fill="#FEFCE4"/>
<path d="M177.99 263.637L178.355 269.547L125.171 272.827L124.806 266.918L177.99 263.637Z" fill="#FEFCE4"/>
<path fill-rule="evenodd" clip-rule="evenodd" d="M179.262 262.199L179.794 270.818L123.9 274.266L123.368 265.647L179.262 262.199ZM177.991 263.637L124.807 266.918L125.172 272.827L178.355 269.547L177.991 263.637Z" fill="#FEFCE4"/>
<path d="M173.505 283.657L169.584 288.094L129.657 252.807L133.578 248.371L173.505 283.657Z" fill="#FEFCE4"/>
<path fill-rule="evenodd" clip-rule="evenodd" d="M175.42 283.539L169.701 290.01L127.74 252.925L133.459 246.454L175.42 283.539ZM173.504 283.657L133.577 248.371L129.657 252.807L169.583 288.094L173.504 283.657Z" fill="#FEFCE4"/>
<path d="M226.693 220.317C242.982 219.312 255.866 227.414 259.859 241.475L243.777 245.833C242.114 238.361 235.223 233.857 227.199 234.352C219.054 234.855 214.424 239.709 214.757 245.099C215.008 249.171 216.982 251.935 223.284 252.748L240.745 255.157C253.97 257.107 262.475 264.397 263.244 276.853C264.204 292.424 251.987 302.916 232.943 304.091C216.175 305.125 200.963 298.249 197.937 282.325L214.85 277.795C217.567 286.765 224.518 290.303 233.621 289.742C242.963 289.165 247.601 284.431 247.246 278.682C246.965 274.13 244.639 271.509 237.364 270.515L220.157 268.33C210.45 266.885 198.627 262.324 197.659 246.634C196.772 232.262 207.889 221.477 226.693 220.317ZM311.943 215.058C335.658 213.595 355.375 231.134 356.816 254.49C358.257 277.845 340.83 297.435 317.115 298.898C293.4 300.361 273.698 283.061 272.257 259.706C270.816 236.35 288.228 216.521 311.943 215.058ZM316.169 283.567C330.662 282.673 341.353 270.833 340.407 255.502C339.462 240.171 327.381 229.494 312.889 230.389C298.397 231.283 287.72 243.363 288.666 258.694C289.612 274.025 301.677 284.461 316.169 283.567ZM406.1 209.249C429.815 207.786 449.532 225.326 450.973 248.681C452.414 272.037 434.987 291.627 411.272 293.09C387.557 294.553 367.855 277.253 366.414 253.898C364.973 230.542 382.385 210.712 406.1 209.249ZM410.326 277.759C424.819 276.865 435.51 265.024 434.564 249.693C433.619 234.363 421.538 223.686 407.046 224.58C392.553 225.474 381.877 237.554 382.823 252.885C383.768 268.216 395.834 278.653 410.326 277.759ZM536.06 203.036L541.01 283.283L527.356 284.125L479.744 235.365L482.921 286.867L466.632 287.871L461.681 207.624L475.336 206.782L523.037 256.98L519.771 204.041L536.06 203.036Z" fill="white"/>
</svg>
