<svg width="141" height="33" viewBox="0 0 141 33" fill="none" xmlns="http://www.w3.org/2000/svg">
<circle cx="16.5607" cy="16.0278" r="10.7944" stroke="#E571EE" stroke-width="10.4673"/>
<path d="M50.2523 5.2334H45.0187V10.467V21.5885V26.8222H50.2523H96.3738C102.335 26.8222 107.168 21.9894 107.168 16.0278C107.168 10.0662 102.335 5.2334 96.3738 5.2334H50.2523Z" stroke="#628BFF" stroke-width="10.4673"/>
<path d="M129.535 9.56912C132.538 9.56912 135.418 10.7537 137.541 12.8622C139.665 14.9707 140.858 17.8305 140.858 20.8124C140.858 23.7943 139.665 26.654 137.541 28.7626C135.418 30.8711 132.538 32.0556 129.535 32.0556L129.535 9.56912Z" fill="#FBB22D"/>
<path d="M129.535 22.4861C126.532 22.4861 123.652 21.3015 121.528 19.193C119.405 17.0845 118.212 14.2247 118.212 11.2428C118.212 8.2609 119.405 5.40114 121.528 3.29262C123.652 1.1841 126.532 -0.000457612 129.535 -0.000457764L129.535 22.4861Z" fill="#FBB22D"/>
</svg>
