<svg width="62" height="62" viewBox="0 0 62 62" fill="none" xmlns="http://www.w3.org/2000/svg">
<path d="M30.9277 4.33702L36.8191 4.92402L31.5361 57.9463L25.6448 57.3593L30.9277 4.33702Z" fill="#FEFCE4"/>
<path fill-rule="evenodd" clip-rule="evenodd" d="M29.7103 2.85121L38.3035 3.70741L32.7513 59.4315L24.1581 58.5753L29.7103 2.85121ZM30.9266 4.3367L25.6436 57.359L31.535 57.946L36.818 4.92369L30.9266 4.3367Z" fill="#FEFCE4"/>
<path d="M49.9708 11.9724L53.7216 16.5533L12.4935 50.3101L8.74277 45.7292L49.9708 11.9724Z" fill="#FEFCE4"/>
<path fill-rule="evenodd" clip-rule="evenodd" d="M50.161 10.0627L55.6319 16.7444L12.303 52.2212L6.83215 45.5396L50.161 10.0627ZM49.9707 11.9731L8.74259 45.7299L12.4933 50.3108L53.7214 16.554L49.9707 11.9731Z" fill="#FEFCE4"/>
<path d="M58.0358 30.8372L57.4488 36.7286L4.42647 31.4456L5.01347 25.5542L58.0358 30.8372Z" fill="#FEFCE4"/>
<path fill-rule="evenodd" clip-rule="evenodd" d="M59.5217 29.621L58.6655 38.2142L2.94145 32.662L3.79765 24.0689L59.5217 29.621ZM58.0362 30.8373L5.01393 25.5544L4.42693 31.4457L57.4492 36.7287L58.0362 30.8373Z" fill="#FEFCE4"/>
<path d="M50.4004 49.88L45.8195 53.6308L12.0627 12.4027L16.6436 8.65197L50.4004 49.88Z" fill="#FEFCE4"/>
<path fill-rule="evenodd" clip-rule="evenodd" d="M52.3101 50.0703L45.6284 55.5412L10.1515 12.2123L16.8332 6.74145L52.3101 50.0703ZM50.3996 49.88L16.6428 8.65189L12.0619 12.4026L45.8187 53.6307L50.3996 49.88Z" fill="#FEFCE4"/>
</svg>
