<svg width="86" height="86" viewBox="0 0 86 86" fill="none" xmlns="http://www.w3.org/2000/svg">
<mask id="path-1-outside-1_1156_693" maskUnits="userSpaceOnUse" x="0" y="0" width="86" height="86" fill="black">
<rect fill="white" width="86" height="86"/>
<path fill-rule="evenodd" clip-rule="evenodd" d="M47.4445 3H38.5556V32.2704L17.8585 11.5732L11.5731 17.8586L32.27 38.5556H3V47.4445H32.2703L11.5731 68.1417L17.8585 74.4271L38.5556 53.7299V83H47.4445V53.7301L68.1416 74.4271L74.427 68.1418L53.7297 47.4445H83V38.5556H53.73L74.427 17.8585L68.1416 11.5732L47.4445 32.2702V3Z"/>
</mask>
<path d="M38.5556 3V0.44H35.9956V3H38.5556ZM47.4445 3H50.0045V0.44H47.4445V3ZM38.5556 32.2704L36.7455 34.0806L41.1157 38.4508V32.2704H38.5556ZM17.8585 11.5732L19.6687 9.76301L17.8585 7.95282L16.0483 9.76301L17.8585 11.5732ZM11.5731 17.8586L9.76288 16.0484L7.95268 17.8586L9.76288 19.6688L11.5731 17.8586ZM32.27 38.5556V41.1156H38.4504L34.0802 36.7454L32.27 38.5556ZM3 38.5556V35.9956H0.44V38.5556H3ZM3 47.4445H0.44V50.0045H3V47.4445ZM32.2703 47.4445L34.0805 49.2547L38.4507 44.8845H32.2703V47.4445ZM11.5731 68.1417L9.76287 66.3315L7.95267 68.1417L9.76287 69.9519L11.5731 68.1417ZM17.8585 74.4271L16.0483 76.2373L17.8585 78.0475L19.6686 76.2373L17.8585 74.4271ZM38.5556 53.7299H41.1157V47.5495L36.7455 51.9197L38.5556 53.7299ZM38.5556 83H35.9956V85.56H38.5556V83ZM47.4445 83V85.56H50.0045V83H47.4445ZM47.4445 53.7301L49.2547 51.9199L44.8845 47.5497V53.7301H47.4445ZM68.1416 74.4271L66.3314 76.2373L68.1416 78.0475L69.9518 76.2373L68.1416 74.4271ZM74.427 68.1418L76.2372 69.952L78.0474 68.1418L76.2372 66.3316L74.427 68.1418ZM53.7297 47.4445V44.8845H47.5493L51.9195 49.2547L53.7297 47.4445ZM83 47.4445V50.0045H85.56V47.4445H83ZM83 38.5556H85.56V35.9956H83V38.5556ZM53.73 38.5556L51.9198 36.7454L47.5496 41.1156H53.73V38.5556ZM74.427 17.8585L76.2372 19.6687L78.0474 17.8585L76.2372 16.0484L74.427 17.8585ZM68.1416 11.5732L69.9518 9.76296L68.1416 7.95276L66.3314 9.76296L68.1416 11.5732ZM47.4445 32.2702H44.8845V38.4506L49.2547 34.0804L47.4445 32.2702ZM38.5556 5.56H47.4445V0.44H38.5556V5.56ZM41.1157 32.2704V3H35.9956V32.2704H41.1157ZM16.0483 13.3834L36.7455 34.0806L40.3658 30.4602L19.6687 9.76301L16.0483 13.3834ZM13.3833 19.6688L19.6687 13.3834L16.0483 9.76301L9.76288 16.0484L13.3833 19.6688ZM34.0802 36.7454L13.3833 16.0484L9.76288 19.6688L30.4598 40.3658L34.0802 36.7454ZM3 41.1156H32.27V35.9956H3V41.1156ZM5.56 47.4445V38.5556H0.44V47.4445H5.56ZM32.2703 44.8845H3V50.0045H32.2703V44.8845ZM13.3833 69.9519L34.0805 49.2547L30.4601 45.6343L9.76287 66.3315L13.3833 69.9519ZM19.6686 72.6169L13.3833 66.3315L9.76287 69.9519L16.0483 76.2373L19.6686 72.6169ZM36.7455 51.9197L16.0483 72.6169L19.6686 76.2373L40.3658 55.5401L36.7455 51.9197ZM41.1157 83V53.7299H35.9956V83H41.1157ZM47.4445 80.44H38.5556V85.56H47.4445V80.44ZM44.8845 53.7301V83H50.0045V53.7301H44.8845ZM69.9518 72.617L49.2547 51.9199L45.6343 55.5403L66.3314 76.2373L69.9518 72.617ZM72.6168 66.3316L66.3314 72.617L69.9518 76.2373L76.2372 69.952L72.6168 66.3316ZM51.9195 49.2547L72.6168 69.952L76.2372 66.3316L55.5399 45.6343L51.9195 49.2547ZM83 44.8845H53.7297V50.0045H83V44.8845ZM80.44 38.5556V47.4445H85.56V38.5556H80.44ZM53.73 41.1156H83V35.9956H53.73V41.1156ZM72.6168 16.0484L51.9198 36.7454L55.5402 40.3658L76.2372 19.6687L72.6168 16.0484ZM66.3314 13.3833L72.6168 19.6687L76.2372 16.0484L69.9518 9.76296L66.3314 13.3833ZM49.2547 34.0804L69.9518 13.3833L66.3314 9.76296L45.6343 30.46L49.2547 34.0804ZM44.8845 3V32.2702H50.0045V3H44.8845Z" fill="#FBB22D" mask="url(#path-1-outside-1_1156_693)"/>
</svg>
