<svg width="245" height="245" viewBox="0 0 245 245" fill="none" xmlns="http://www.w3.org/2000/svg">
<path d="M244.73 122.365C244.73 189.945 189.945 244.73 122.365 244.73C54.7847 244.73 0 189.945 0 122.365C0 54.7847 54.7847 0 122.365 0C189.945 0 244.73 54.7847 244.73 122.365Z" fill="#FCBA30"/>
<path fill-rule="evenodd" clip-rule="evenodd" d="M121.977 35L80.5956 76.3814L121.977 117.763L163.358 76.3814L121.977 35ZM144.369 76.3814L121.977 53.9896L99.5852 76.3814L121.977 98.7733L144.369 76.3814Z" fill="white"/>
<path fill-rule="evenodd" clip-rule="evenodd" d="M75.3815 80.9004L116.763 122.282L75.3815 163.663L34.0001 122.282L75.3815 80.9004ZM75.3815 99.89L97.7733 122.282L75.3815 144.674L52.9896 122.282L75.3815 99.89Z" fill="white"/>
<path fill-rule="evenodd" clip-rule="evenodd" d="M121.977 126.801L163.358 168.182L121.977 209.564L80.5956 168.182L121.977 126.801ZM121.977 145.79L144.369 168.182L121.977 190.574L99.5852 168.182L121.977 145.79Z" fill="white"/>
<path fill-rule="evenodd" clip-rule="evenodd" d="M168.574 80.9004L209.955 122.282L168.574 163.663L127.192 122.282L168.574 80.9004ZM168.574 99.89L190.966 122.282L168.574 144.674L146.182 122.282L168.574 99.89Z" fill="white"/>
</svg>
